ffmpeg started on 2025-05-13 at 10:55:11
Report written to "D:\Convert\FFMetrics\reports\ssim_report-6.txt"
Log level: 32
Command line:
ffmpeg -hide_banner -nostdin -i "G:\\\xc0\xed\xe8\xec\xe5\\\xce\xed\xe3\xee\xe8\xed\xe3\xe8\\!_35_\xcb\xe5\xf2\xee_2024\\DreamCast-1\\\xdf \xf1\xf2\xe0\xeb \xf1\xe0\xec\xfb\xec \xf1\xe8\xeb\xfc\xed\xfb\xec \xf1 \xef\xf0\xee\xe2\xe0\xeb\xfc\xed\xfb\xec \xed\xe0\xe2\xfb\xea\xee\xec \xab\xed\xe5\xed\xee\xf0\xec\xe0\xeb\xfc\xed\xee\xe5 \xf1\xee\xf1\xf2\xee\xff\xed\xe8\xe5\xbb, \xff \xf0\xe0\xe7\xf0\xf3\xf8\xf3 \xe2\xf1\xb8\\[DC] Hazurewaku - 09_Telegram_HEVC.mkv" -i "G:\\\xc0\xed\xe8\xec\xe5\\\xce\xed\xe3\xee\xe8\xed\xe3\xe8\\!_35_\xcb\xe5\xf2\xee_2024\\DreamCast-1\\\xdf \xf1\xf2\xe0\xeb \xf1\xe0\xec\xfb\xec \xf1\xe8\xeb\xfc\xed\xfb\xec \xf1 \xef\xf0\xee\xe2\xe0\xeb\xfc\xed\xfb\xec \xed\xe0\xe2\xfb\xea\xee\xec \xab\xed\xe5\xed\xee\xf0\xec\xe0\xeb\xfc\xed\xee\xe5 \xf1\xee\xf1\xf2\xee\xff\xed\xe8\xe5\xbb, \xff \xf0\xe0\xe7\xf0\xf3\xf8\xf3 \xe2\xf1\xb8\\[DC] Hazurewaku - 09_Telegram.mp4" -lavfi "[0:v]settb=AVTB,setpts=PTS-STARTPTS,format=pix_fmts=yuv420p10,fps=24000/1001,scale=1920:1080:flags=bicubic[main];[1:v]settb=AVTB,setpts=PTS-STARTPTS,format=pix_fmts=yuv420p,fps=24000/1001,scale=1920:1080:flags=bicubic[ref];[main][ref]ssim=eof_action=endall:stats_file='D\\:/Convert/FFMetrics/logs/ssim_logfile-6.txt'" -f null -
Input #0, matroska,webm, from 'G:\Аниме\Онгоинги\!_35_Лето_2024\DreamCast-1\Я стал самым сильным с провальным навыком «ненормальное состояние», я разрушу всё\[DC] Hazurewaku - 09_Telegram_HEVC.mkv':
  Metadata:
    COMPATIBLE_BRANDS: isomiso2avc1mp41
    MAJOR_BRAND     : isom
    MINOR_VERSION   : 512
    ENCODER         : Lavf61.7.100
  Duration: 00:24:17.71, start: -0.021000, bitrate: 1191 kb/s
  Stream #0:0: Video: hevc (Main 10), yuv420p10le(tv, bt709, progressive), 1920x1080 [SAR 1:1 DAR 16:9], 23.98 fps, 23.98 tbr, 1k tbn (default)
      Metadata:
        HANDLER_NAME    : VideoHandler
        VENDOR_ID       : [0][0][0][0]
        ENCODER         : Lavc61.19.100 libx265
        BPS             : 994721
        DURATION        : 00:24:16.538708333
        NUMBER_OF_FRAMES: 34922
        NUMBER_OF_BYTES : 181106162
        _STATISTICS_WRITING_APP: mkvpropedit v66.0.0 ('Josie') 64-bit
        _STATISTICS_WRITING_DATE_UTC: 2025-05-11 15:59:03
        _STATISTICS_TAGS: BPS DURATION NUMBER_OF_FRAMES NUMBER_OF_BYTES
  Stream #0:1: Audio: aac (LC), 48000 Hz, stereo, fltp (default)
      Metadata:
        HANDLER_NAME    : SoundHandler
        VENDOR_ID       : [0][0][0][0]
        ENCODER         : Lavc61.19.100 aac
        BPS             : 193539
        DURATION        : 00:24:17.706000000
        NUMBER_OF_FRAMES: 68331
        NUMBER_OF_BYTES : 35265502
        _STATISTICS_WRITING_APP: mkvpropedit v66.0.0 ('Josie') 64-bit
        _STATISTICS_WRITING_DATE_UTC: 2025-05-11 15:59:03
        _STATISTICS_TAGS: BPS DURATION NUMBER_OF_FRAMES NUMBER_OF_BYTES
Input #1, mov,mp4,m4a,3gp,3g2,mj2, from 'G:\Аниме\Онгоинги\!_35_Лето_2024\DreamCast-1\Я стал самым сильным с провальным навыком «ненормальное состояние», я разрушу всё\[DC] Hazurewaku - 09_Telegram.mp4':
  Metadata:
    major_brand     : isom
    minor_version   : 512
    compatible_brands: isomiso2avc1mp41
    encoder         : Lavf61.1.100
  Duration: 00:24:17.65, start: 0.000000, bitrate: 3533 kb/s
  Stream #1:0[0x1](und): Video: h264 (High) (avc1 / 0x31637661), yuv420p(tv, bt709, progressive), 1920x1080 [SAR 1:1 DAR 16:9], 3388 kb/s, 23.98 fps, 23.98 tbr, 24k tbn (default)
      Metadata:
        handler_name    : VideoHandler
        vendor_id       : [0][0][0][0]
        encoder         : Lavc61.3.100 h264_qsv
  Stream #1:1[0x2](und): Audio: aac (HE-AACv2) (mp4a / 0x6134706D), 48000 Hz, stereo, fltp, 144 kb/s (default)
      Metadata:
        handler_name    : SoundHandler
        vendor_id       : [0][0][0][0]
Stream mapping:
  Stream #0:0 (hevc) -> settb:default
  Stream #1:0 (h264) -> settb:default
  ssim:default -> Stream #0:0 (wrapped_avframe)
  Stream #0:1 -> #0:1 (aac (native) -> pcm_s16le (native))
Output #0, null, to 'pipe:':
  Metadata:
    COMPATIBLE_BRANDS: isomiso2avc1mp41
    MAJOR_BRAND     : isom
    MINOR_VERSION   : 512
    encoder         : Lavf61.7.100
  Stream #0:0: Video: wrapped_avframe, yuv420p10le(tv, bt709, progressive), 1920x1080 [SAR 1:1 DAR 16:9], q=2-31, 200 kb/s, 23.98 fps, 23.98 tbn
      Metadata:
        encoder         : Lavc61.19.100 wrapped_avframe
  Stream #0:1: Audio: pcm_s16le, 48000 Hz, stereo, s16, 1536 kb/s (default)
      Metadata:
        HANDLER_NAME    : SoundHandler
        VENDOR_ID       : [0][0][0][0]
        _STATISTICS_TAGS: BPS DURATION NUMBER_OF_FRAMES NUMBER_OF_BYTES
        BPS             : 193539
        DURATION        : 00:24:17.706000000
        NUMBER_OF_FRAMES: 68331
        NUMBER_OF_BYTES : 35265502
        _STATISTICS_WRITING_APP: mkvpropedit v66.0.0 ('Josie') 64-bit
        _STATISTICS_WRITING_DATE_UTC: 2025-05-11 15:59:03
        encoder         : Lavc61.19.100 pcm_s16le
frame=  160 fps=0.0 q=-0.0 size=N/A time=00:00:06.67 bitrate=N/A speed=13.1x    frame=  411 fps=398 q=-0.0 size=N/A time=00:00:17.14 bitrate=N/A speed=16.6x    frame=  657 fps=427 q=-0.0 size=N/A time=00:00:27.40 bitrate=N/A speed=17.8x    frame=  895 fps=434 q=-0.0 size=N/A time=00:00:37.32 bitrate=N/A speed=18.1x    frame= 1148 fps=445 q=-0.0 size=N/A time=00:00:47.88 bitrate=N/A speed=18.6x    frame= 1415 fps=458 q=-0.0 size=N/A time=00:00:59.01 bitrate=N/A speed=19.1x    frame= 1695 fps=469 q=-0.0 size=N/A time=00:01:10.69 bitrate=N/A speed=19.6x    frame= 1946 fps=473 q=-0.0 size=N/A time=00:01:21.16 bitrate=N/A speed=19.7x    frame= 2171 fps=468 q=-0.0 size=N/A time=00:01:30.54 bitrate=N/A speed=19.5x    frame= 2314 fps=449 q=-0.0 size=N/A time=00:01:36.51 bitrate=N/A speed=18.7x    frame= 2533 fps=447 q=-0.0 size=N/A time=00:01:45.64 bitrate=N/A speed=18.6x    frame= 2728 fps=442 q=-0.0 size=N/A time=00:01:53.78 bitrate=N/A speed=18.4x    frame= 2942 fps=439 q=-0.0 size=N/A time=00:02:02.70 bitrate=N/A speed=18.3x    frame= 3105 fps=430 q=-0.0 size=N/A time=00:02:09.50 bitrate=N/A speed=17.9x    frame= 3272 fps=424 q=-0.0 size=N/A time=00:02:16.46 bitrate=N/A speed=17.7x    frame= 3448 fps=418 q=-0.0 size=N/A time=00:02:23.81 bitrate=N/A speed=17.4x    frame= 3643 fps=416 q=-0.0 size=N/A time=00:02:31.94 bitrate=N/A speed=17.4x    frame= 3847 fps=414 q=-0.0 size=N/A time=00:02:40.45 bitrate=N/A speed=17.3x    frame= 4045 fps=413 q=-0.0 size=N/A time=00:02:48.71 bitrate=N/A speed=17.2x    frame= 4242 fps=411 q=-0.0 size=N/A time=00:02:56.92 bitrate=N/A speed=17.2x    frame= 4464 fps=413 q=-0.0 size=N/A time=00:03:06.18 bitrate=N/A speed=17.2x    frame= 4749 fps=419 q=-0.0 size=N/A time=00:03:18.07 bitrate=N/A speed=17.5x    frame= 4998 fps=421 q=-0.0 size=N/A time=00:03:28.45 bitrate=N/A speed=17.6x    frame= 5234 fps=423 q=-0.0 size=N/A time=00:03:38.30 bitrate=N/A speed=17.7x    frame= 5490 fps=426 q=-0.0 size=N/A time=00:03:48.97 bitrate=N/A speed=17.8x    frame= 5753 fps=429 q=-0.0 size=N/A time=00:03:59.94 bitrate=N/A speed=17.9x    frame= 6038 fps=434 q=-0.0 size=N/A time=00:04:11.83 bitrate=N/A speed=18.1x    frame= 6277 fps=435 q=-0.0 size=N/A time=00:04:21.80 bitrate=N/A speed=18.1x    frame= 6521 fps=436 q=-0.0 size=N/A time=00:04:31.98 bitrate=N/A speed=18.2x    frame= 6755 fps=437 q=-0.0 size=N/A time=00:04:41.73 bitrate=N/A speed=18.2x    frame= 7026 fps=440 q=-0.0 size=N/A time=00:04:53.04 bitrate=N/A speed=18.3x    frame= 7294 fps=442 q=-0.0 size=N/A time=00:05:04.22 bitrate=N/A speed=18.4x    frame= 7535 fps=443 q=-0.0 size=N/A time=00:05:14.27 bitrate=N/A speed=18.5x    frame= 7804 fps=445 q=-0.0 size=N/A time=00:05:25.49 bitrate=N/A speed=18.6x    frame= 8069 fps=447 q=-0.0 size=N/A time=00:05:36.54 bitrate=N/A speed=18.7x    frame= 8322 fps=448 q=-0.0 size=N/A time=00:05:47.09 bitrate=N/A speed=18.7x    frame= 8569 fps=449 q=-0.0 size=N/A time=00:05:57.39 bitrate=N/A speed=18.7x    frame= 8804 fps=449 q=-0.0 size=N/A time=00:06:07.20 bitrate=N/A speed=18.7x    frame= 9066 fps=451 q=-0.0 size=N/A time=00:06:18.12 bitrate=N/A speed=18.8x    frame= 9298 fps=451 q=-0.0 size=N/A time=00:06:27.80 bitrate=N/A speed=18.8x    frame= 9552 fps=452 q=-0.0 size=N/A time=00:06:38.39 bitrate=N/A speed=18.8x    frame= 9802 fps=453 q=-0.0 size=N/A time=00:06:48.82 bitrate=N/A speed=18.9x    frame=10057 fps=454 q=-0.0 size=N/A time=00:06:59.46 bitrate=N/A speed=18.9x    frame=10320 fps=455 q=-0.0 size=N/A time=00:07:10.43 bitrate=N/A speed=  19x    frame=10535 fps=454 q=-0.0 size=N/A time=00:07:19.39 bitrate=N/A speed=18.9x    frame=10770 fps=454 q=-0.0 size=N/A time=00:07:29.19 bitrate=N/A speed=18.9x    frame=11054 fps=456 q=-0.0 size=N/A time=00:07:41.04 bitrate=N/A speed=  19x    frame=11318 fps=457 q=-0.0 size=N/A time=00:07:52.05 bitrate=N/A speed=19.1x    frame=11589 fps=458 q=-0.0 size=N/A time=00:08:03.35 bitrate=N/A speed=19.1x    frame=11838 fps=459 q=-0.0 size=N/A time=00:08:13.74 bitrate=N/A speed=19.1x    frame=12094 fps=460 q=-0.0 size=N/A time=00:08:24.42 bitrate=N/A speed=19.2x    frame=12371 fps=461 q=-0.0 size=N/A time=00:08:35.97 bitrate=N/A speed=19.2x    frame=12628 fps=462 q=-0.0 size=N/A time=00:08:46.69 bitrate=N/A speed=19.3x    frame=12898 fps=463 q=-0.0 size=N/A time=00:08:57.95 bitrate=N/A speed=19.3x    frame=13164 fps=464 q=-0.0 size=N/A time=00:09:09.04 bitrate=N/A speed=19.4x    frame=13397 fps=464 q=-0.0 size=N/A time=00:09:18.76 bitrate=N/A speed=19.3x    frame=13624 fps=463 q=-0.0 size=N/A time=00:09:28.23 bitrate=N/A speed=19.3x    frame=13815 fps=462 q=-0.0 size=N/A time=00:09:36.20 bitrate=N/A speed=19.3x    frame=14044 fps=461 q=-0.0 size=N/A time=00:09:45.75 bitrate=N/A speed=19.2x    frame=14268 fps=461 q=-0.0 size=N/A time=00:09:55.09 bitrate=N/A speed=19.2x    frame=14460 fps=460 q=-0.0 size=N/A time=00:10:03.10 bitrate=N/A speed=19.2x    frame=14700 fps=460 q=-0.0 size=N/A time=00:10:13.11 bitrate=N/A speed=19.2x    frame=14939 fps=460 q=-0.0 size=N/A time=00:10:23.08 bitrate=N/A speed=19.2x    frame=15170 fps=459 q=-0.0 size=N/A time=00:10:32.71 bitrate=N/A speed=19.2x    frame=15406 fps=459 q=-0.0 size=N/A time=00:10:42.55 bitrate=N/A speed=19.2x    frame=15647 fps=459 q=-0.0 size=N/A time=00:10:52.61 bitrate=N/A speed=19.2x    frame=15884 fps=459 q=-0.0 size=N/A time=00:11:02.49 bitrate=N/A speed=19.2x    frame=16135 fps=460 q=-0.0 size=N/A time=00:11:12.96 bitrate=N/A speed=19.2x    frame=16377 fps=460 q=-0.0 size=N/A time=00:11:23.05 bitrate=N/A speed=19.2x    frame=16637 fps=461 q=-0.0 size=N/A time=00:11:33.90 bitrate=N/A speed=19.2x    frame=16869 fps=460 q=-0.0 size=N/A time=00:11:43.57 bitrate=N/A speed=19.2x    frame=17098 fps=460 q=-0.0 size=N/A time=00:11:53.12 bitrate=N/A speed=19.2x    frame=17353 fps=461 q=-0.0 size=N/A time=00:12:03.76 bitrate=N/A speed=19.2x    frame=17605 fps=461 q=-0.0 size=N/A time=00:12:14.27 bitrate=N/A speed=19.2x    frame=17879 fps=462 q=-0.0 size=N/A time=00:12:25.70 bitrate=N/A speed=19.3x    frame=18143 fps=463 q=-0.0 size=N/A time=00:12:36.71 bitrate=N/A speed=19.3x    frame=18408 fps=463 q=-0.0 size=N/A time=00:12:47.76 bitrate=N/A speed=19.3x    frame=18644 fps=463 q=-0.0 size=N/A time=00:12:57.61 bitrate=N/A speed=19.3x    frame=18916 fps=464 q=-0.0 size=N/A time=00:13:08.95 bitrate=N/A speed=19.4x    frame=19165 fps=464 q=-0.0 size=N/A time=00:13:19.34 bitrate=N/A speed=19.4x    frame=19430 fps=465 q=-0.0 size=N/A time=00:13:30.39 bitrate=N/A speed=19.4x    frame=19693 fps=465 q=-0.0 size=N/A time=00:13:41.36 bitrate=N/A speed=19.4x    frame=19930 fps=465 q=-0.0 size=N/A time=00:13:51.24 bitrate=N/A speed=19.4x    frame=20162 fps=465 q=-0.0 size=N/A time=00:14:00.92 bitrate=N/A speed=19.4x    frame=20429 fps=466 q=-0.0 size=N/A time=00:14:12.05 bitrate=N/A speed=19.4x    frame=20646 fps=465 q=-0.0 size=N/A time=00:14:21.11 bitrate=N/A speed=19.4x    frame=20903 fps=466 q=-0.0 size=N/A time=00:14:31.82 bitrate=N/A speed=19.4x    frame=21161 fps=466 q=-0.0 size=N/A time=00:14:42.59 bitrate=N/A speed=19.4x    frame=21425 fps=467 q=-0.0 size=N/A time=00:14:53.60 bitrate=N/A speed=19.5x    frame=21695 fps=467 q=-0.0 size=N/A time=00:15:04.86 bitrate=N/A speed=19.5x    frame=21926 fps=467 q=-0.0 size=N/A time=00:15:14.49 bitrate=N/A speed=19.5x    frame=22174 fps=467 q=-0.0 size=N/A time=00:15:24.84 bitrate=N/A speed=19.5x    frame=22410 fps=467 q=-0.0 size=N/A time=00:15:34.68 bitrate=N/A speed=19.5x    frame=22685 fps=468 q=-0.0 size=N/A time=00:15:46.15 bitrate=N/A speed=19.5x    frame=22939 fps=468 q=-0.0 size=N/A time=00:15:56.74 bitrate=N/A speed=19.5x    frame=23186 fps=468 q=-0.0 size=N/A time=00:16:07.04 bitrate=N/A speed=19.5x    frame=23428 fps=468 q=-0.0 size=N/A time=00:16:17.14 bitrate=N/A speed=19.5x    frame=23683 fps=468 q=-0.0 size=N/A time=00:16:27.77 bitrate=N/A speed=19.5x    frame=23932 fps=468 q=-0.0 size=N/A time=00:16:38.16 bitrate=N/A speed=19.5x    frame=24191 fps=469 q=-0.0 size=N/A time=00:16:48.96 bitrate=N/A speed=19.5x    frame=24437 fps=469 q=-0.0 size=N/A time=00:16:59.22 bitrate=N/A speed=19.6x    frame=24714 fps=469 q=-0.0 size=N/A time=00:17:10.77 bitrate=N/A speed=19.6x    frame=24976 fps=470 q=-0.0 size=N/A time=00:17:21.70 bitrate=N/A speed=19.6x    frame=25234 fps=470 q=-0.0 size=N/A time=00:17:32.46 bitrate=N/A speed=19.6x    frame=25446 fps=470 q=-0.0 size=N/A time=00:17:41.31 bitrate=N/A speed=19.6x    frame=25709 fps=470 q=-0.0 size=N/A time=00:17:52.27 bitrate=N/A speed=19.6x    frame=25974 fps=470 q=-0.0 size=N/A time=00:18:03.33 bitrate=N/A speed=19.6x    frame=26230 fps=471 q=-0.0 size=N/A time=00:18:14.00 bitrate=N/A speed=19.6x    frame=26454 fps=470 q=-0.0 size=N/A time=00:18:23.35 bitrate=N/A speed=19.6x    frame=26696 fps=470 q=-0.0 size=N/A time=00:18:33.44 bitrate=N/A speed=19.6x    frame=26928 fps=470 q=-0.0 size=N/A time=00:18:43.12 bitrate=N/A speed=19.6x    frame=27161 fps=470 q=-0.0 size=N/A time=00:18:52.84 bitrate=N/A speed=19.6x    frame=27426 fps=470 q=-0.0 size=N/A time=00:19:03.89 bitrate=N/A speed=19.6x    frame=27644 fps=470 q=-0.0 size=N/A time=00:19:12.98 bitrate=N/A speed=19.6x    frame=27861 fps=469 q=-0.0 size=N/A time=00:19:22.03 bitrate=N/A speed=19.6x    frame=28092 fps=469 q=-0.0 size=N/A time=00:19:31.67 bitrate=N/A speed=19.6x    frame=28353 fps=469 q=-0.0 size=N/A time=00:19:42.55 bitrate=N/A speed=19.6x    frame=28592 fps=469 q=-0.0 size=N/A time=00:19:52.52 bitrate=N/A speed=19.6x    frame=28824 fps=469 q=-0.0 size=N/A time=00:20:02.20 bitrate=N/A speed=19.6x    frame=29090 fps=470 q=-0.0 size=N/A time=00:20:13.29 bitrate=N/A speed=19.6x    frame=29357 fps=470 q=-0.0 size=N/A time=00:20:24.43 bitrate=N/A speed=19.6x    frame=29633 fps=471 q=-0.0 size=N/A time=00:20:35.94 bitrate=N/A speed=19.6x    frame=29905 fps=471 q=-0.0 size=N/A time=00:20:47.28 bitrate=N/A speed=19.6x    frame=30109 fps=470 q=-0.0 size=N/A time=00:20:55.79 bitrate=N/A speed=19.6x    frame=30313 fps=470 q=-0.0 size=N/A time=00:21:04.30 bitrate=N/A speed=19.6x    frame=30506 fps=469 q=-0.0 size=N/A time=00:21:12.35 bitrate=N/A speed=19.6x    frame=30714 fps=469 q=-0.0 size=N/A time=00:21:21.02 bitrate=N/A speed=19.5x    frame=30953 fps=469 q=-0.0 size=N/A time=00:21:30.99 bitrate=N/A speed=19.5x    frame=31211 fps=469 q=-0.0 size=N/A time=00:21:41.75 bitrate=N/A speed=19.6x    frame=31381 fps=468 q=-0.0 size=N/A time=00:21:48.84 bitrate=N/A speed=19.5x    frame=31616 fps=468 q=-0.0 size=N/A time=00:21:58.65 bitrate=N/A speed=19.5x    frame=31853 fps=468 q=-0.0 size=N/A time=00:22:08.53 bitrate=N/A speed=19.5x    frame=32051 fps=467 q=-0.0 size=N/A time=00:22:16.79 bitrate=N/A speed=19.5x    frame=32242 fps=466 q=-0.0 size=N/A time=00:22:24.76 bitrate=N/A speed=19.4x    frame=32459 fps=466 q=-0.0 size=N/A time=00:22:33.81 bitrate=N/A speed=19.4x    frame=32674 fps=466 q=-0.0 size=N/A time=00:22:42.77 bitrate=N/A speed=19.4x    frame=32847 fps=465 q=-0.0 size=N/A time=00:22:49.99 bitrate=N/A speed=19.4x    frame=33012 fps=464 q=-0.0 size=N/A time=00:22:56.87 bitrate=N/A speed=19.3x    frame=33209 fps=463 q=-0.0 size=N/A time=00:23:05.09 bitrate=N/A speed=19.3x    frame=33400 fps=462 q=-0.0 size=N/A time=00:23:13.05 bitrate=N/A speed=19.3x    frame=33571 fps=461 q=-0.0 size=N/A time=00:23:20.19 bitrate=N/A speed=19.2x    frame=33754 fps=461 q=-0.0 size=N/A time=00:23:27.82 bitrate=N/A speed=19.2x    frame=33966 fps=460 q=-0.0 size=N/A time=00:23:36.66 bitrate=N/A speed=19.2x    frame=34200 fps=460 q=-0.0 size=N/A time=00:23:46.42 bitrate=N/A speed=19.2x    frame=34450 fps=460 q=-0.0 size=N/A time=00:23:56.85 bitrate=N/A speed=19.2x    frame=34673 fps=460 q=-0.0 size=N/A time=00:24:06.15 bitrate=N/A speed=19.2x    frame=34911 fps=460 q=-0.0 size=N/A time=00:24:16.07 bitrate=N/A speed=19.2x    [Parsed_ssim_10 @ 000001636e75a140] SSIM Y:0.994087 (22.281570) U:0.993873 (22.127669) V:0.994494 (22.591470) All:0.994119 (22.305376)
[out#0/null @ 000001636e716140] video:15006KiB audio:273324KiB subtitle:0KiB other streams:0KiB global headers:0KiB muxing overhead: unknown
frame=34922 fps=460 q=-0.0 Lsize=N/A time=00:24:16.53 bitrate=N/A speed=19.2x    
